# xmcd
#
# Track frame offsets: 
#        150
#        15488
#        33652
#        55450
#        91676
#        121600
#        145074
#        168124
#        184867
#        205853
#        220704
#        240110
#        262419
#
# Disc length: 3859 seconds
#
# Revision: 1
# Processed by: cddbd v1.5.2PL0 Copyright (c) Steve Scherf et al.
# Submitted via: ExactAudioCopy v0.99pb4
#
DISCID=a80f110d
DTITLE=Patricia Barber - The Premonition Years: 1994-2002 (Standards)
DYEAR=2007
DGENRE=Jazz
TTITLE0=I Fall In Love Too Easily
TTITLE1=Bye Bye Blacbird
TTITLE2=Alfie
TTITLE3=You and The Night and The Music
TTITLE4=Yesterdays
TTITLE5=My Funny Valentine
TTITLE6=Inch Worm
TTITLE7=So In Love
TTITLE8=The Thrill Is Gone
TTITLE9=Manha De Carnival
TTITLE10=A Man and A Woman
TTITLE11=Invitation
TTITLE12=Santa Claus is Coming To Town (Unreleased)
EXTD=YEAR: 2007
EXTT0=
EXTT1=
EXTT2=
EXTT3=
EXTT4=
EXTT5=
EXTT6=
EXTT7=
EXTT8=
EXTT9=
EXTT10=
EXTT11=
EXTT12=
PLAYORDER=
